<svg id="cart" xmlns="http://www.w3.org/2000/svg" width="14.517" height="18"><defs><style>.cls-1{fill:#ccc}</style></defs><path id="Path_6387" data-name="Path 6387" class="cls-1" d="M11.139 18H3.377A3.381 3.381 0 0 1 0 14.622v-.067L.881 6.2A2.136 2.136 0 0 1 3.01 4.287h8.543a2.136 2.136 0 0 1 2.131 1.929l.833 8.375v.032A3.381 3.381 0 0 1 11.139 18Zm-9.857-3.346a2.1 2.1 0 0 0 2.1 2.064h7.762a2.1 2.1 0 0 0 2.1-2.065l-.827-8.31a.855.855 0 0 0-.855-.774H3.01a.858.858 0 0 0-.855.77Z" transform="translate(0 .001)"/><path id="Path_6388" data-name="Path 6388" class="cls-1" d="M10.018 5.086a.641.641 0 0 1-.641-.641V3.373a2.092 2.092 0 1 0-4.184 0v1.072a.641.641 0 1 1-1.282 0V3.373a3.374 3.374 0 1 1 6.748 0v1.072a.641.641 0 0 1-.641.641Z" transform="translate(0 .001)"/><path id="Path_6389" data-name="Path 6389" class="cls-1" d="M7.419 12.24h-.213a3.378 3.378 0 0 1-3.375-3.374v-.48a.641.641 0 1 1 1.282 0v.481A2.094 2.094 0 0 0 7.2 10.958h.214a2.094 2.094 0 0 0 2.097-2.092v-.48a.641.641 0 0 1 1.282 0v.481a3.378 3.378 0 0 1-3.374 3.373Z" transform="translate(0 .001)"/></svg>