<svg xmlns="http://www.w3.org/2000/svg" viewBox="0 0 864 864" style="enable-background:new 0 0 864 864" xml:space="preserve"><path d="M436.7 613.8c-8.5-.1-16.9-1-24.9-2.3-6.3-1.1-12.5-2.3-18.6-4.2-14.2-4.5-27.3-12.2-37-23.8-1.4-1.6-2.6-3.2-4.3-4.6-3.5-2.9-7.5-5-11.3-7.5-11.3-7.8-19.1-20.5-20-34.2-1-16.1 1.2-32.2 5-47.8 4.8-19.8.8-35.6-11.4-51-14.7-18.5-20.7-39.9-19.9-63.7.7-21 .6-42-7.2-62.2-3.1-7.9-8.4-15.6-17.2-17.3-7.5-1.5-14.9 1.3-21.9 3.9-7.2 2.7-14.6 4.7-22.1 6.3-12.5 2.6-23.9-1.2-33.8-9-10.2-8-22.4-13.4-35.3-15.1-16.8-2.3-31.2-11.6-45.1-20.7-13.1-8.5-28.9-19.5-36.4-33.6-5.8-11-7.6-23.5-3.4-35.3 5.6-15.5 19.6-26.4 32.8-35.3 12.7-8.5 26.4-14.6 40.9-19.3 10.4-3.4 21.3-5.4 32.3-4.9 11.2.6 21.2 4.4 31.2 9.3 21.5 10.5 42.7 22.1 67.7 22.7 10 .2 20.6-1.2 28.8-7.5 12.3-9.3 13.7-24.7 20.7-37.3 5.4-9.6 12.4-18.3 20.4-26 15.2-14.8 34.5-29.1 54.6-36.1 15.1-5.3 31.5-7 47.4-4.6 13.7 2 25.4 8.6 36.3 17.1 11.3 8.9 21.5 19.2 33.1 27.7 3.9 2.9 8 5.5 11.6 8.8 6.6 6 11.3 13.7 15.5 21.5 3.2 5.9 6.3 12 8.9 18.2 2.4 5.8 4.1 11.6 7.6 17 5.3 8 11.2 9.4 20 5.7 22.4-9.5 44.5-20 67.5-27.6 23-7.7 45.3-2.6 66.3 9.8 21 12.5 36.2 30.3 48.4 51 6.2 10.5.7 25.5-7.7 33-4.4 3.9-9.7 6.6-15.3 8.5-7.7 2.6-15.9 3.6-23.7 5.7-12.3 3.3-21 9.8-27.3 20.8-5.3 9.3-9.4 20.7-19.3 26.2-5.7 3.2-12.6 3.7-19 2.8-14.4-2-28.8-9-42.1-14.6-4.7-2-9.8-4.1-14.8-2.7-7.8 2.2-12.6 12.5-16 19.2-4.3 8.6-7.2 18-8.6 27.5-2.1 14.8.4 29.9 3 44.5 4.3 24.1 0 47-9.2 69.2-5.8 14-11.9 27.9-17.8 41.8-4.3 10.1-4.1 20.4-1.9 30.9 1.9 9.1 4.5 18.3 5.1 27.6.5 8.5-1.2 16.5-4.6 24.3-3.2 7.4-10.8 11.8-17.4 15.8-7.6 4.6-14.7 10-22.2 14.8-20 12.1-44.6 17-68.4 16.6zM390.1 87.1c-8.6 5.1-16.5 11.4-22.1 19.6-11.7 17.2-11.9 39.7-20.6 58.6-6.7 14.5-18.6 27.5-19.2 43.5-.6 18.3 13.6 33.2 24.5 48 24.7 33.9 34.1 76.9 35.5 118.9.8 23.8-1.1 48.6-12.1 69.7-8.6 16.4-22.4 29.9-29.4 47.1-7.4 18-6.4 39.2 2.5 56.5 2.6 4.9 6 9.8 11.2 11.8 5.1 2.1 12.2.1 13.9-5.2.9-2.8.2-5.9-.7-8.8-4.1-14.3-10.3-28.1-11.3-43-1-14.8 4.9-31.5 18.5-37.5 13.5-6 28.8.3 43.3 3 13.6 2.5 27.7 1.6 40.9-2.5 9.8-3.1 19.9-7.9 29.8-5.4 13.7 3.5 19.7 18.6 23.3 30.8 4.6 15.1.8 33.3-7.2 46.5-1.1 1.8-2.3 3.6-3.7 5.3-1.4 1.9-3.1 3.8-3.6 6.1-1.5 6.4 6.8 11.8 13.1 9.8s10.2-8.3 12.5-14.5c11.1-30.7-4.5-63.8-14.6-94.8-9.8-30.2-14.6-61.8-16.7-93.4-1.1-16.9-1.5-34.3 3.9-50.4 6.8-20.3 22-36.5 33.5-54.6 11.4-18.1 19-41.6 9.2-60.6-6.4-12.4-19.3-20.6-25.7-33-6.2-12-5.8-26.5-11.5-38.7-6.4-13.7-19.5-22.8-32-31.3C464 81 452.2 73.2 438.6 72c-11.4-1-22.7 2.8-33.2 7.3-5.1 2.4-10.3 4.9-15.3 7.8zM287 249c16.4-25.3 14.2-48.2-1-56.8-27.1-15.4-46.2-20.7-75.1-32.4-13.2-5.3-27.1-10.9-41-11.7-26.2-1.6-48.4 10.5-67.8 27.5-4.2 3.6-7.2 8.6-10.8 12.9 15.8-8 38.6-13.4 59.4-10.7-9.6 2.4-15.5 3.9-20.3 10.8 6-2.6 45-11.8 80-5.9-10.9.5-17 3.6-22.6 8.3 16.5-3.7 51.6.7 85 13.7 9.6 3.3 14 8.9 14.4 19.9.5 9.5.8 15.7-.2 24.4zm360.2-64.8c10.5 4.4 35.9 9 45.9 5-5-2.4-7.9-3.9-10.9-5.3 18.4-3.8 33.4 5.3 51.2 12.3-14.7-17.7-31.5-28.4-51.7-32.7-32.9-7-62.6 2.8-90.1 20.2-32.4 22.2-.6 52.6 2.6 66.3 1.3-15.8 1.6-30.3-6.8-43.6 14.5 3.1 27 1.6 40.3-4.8-5-2.5-12-7.7-11.8-8.5 31.3 6.1 41.8 6.6 55 4.5-8-2.3-14.8-4.9-23.7-13.4zM510.9 381.6c2.4-19.6 0-42 27-56.2 21.5-11 30.3-21.8 31.3-34.4.7-8.7-2.8-21.9-13.1-23-3.8-.4-7.6.7-11.1 2.3-20.6 9.3-32.3 27.1-35.1 49.3-2.4 20.3-.4 48.7 1 62zm-147.2-1c.3-22.6.5-45.1-5.3-67.3-4.1-15.9-11.3-30-24.8-39.4-5.7-3.9-13.7-9.2-20.5-4.8-11.4 7.4-11.4 22.1-7 33.6 5.2 13.6 19.2 21 29.5 30.4 11.4 10.4 18.1 22.9 24.6 36.6 1.6 3.6 3.6 6.8 3.5 10.9zm2.3 196.2c5.7 3.1 23.7 9.7 29.7 12.2 16.8 7 34.8 7.1 52.6 6.5 8.8-.3 17.7-1.9 26.3-4 9.3-2.2 18.2-5.6 27.4-8.5 4.7-1.5 13-7.4 19.8-9.6-27.2 2.6-87.7 11.1-155.8 3.4zm24.3-105c3.8 7 30.9 21.9 54.1 21.9 17.1 0 35.6-9.5 44.5-22.4-20.2 10.3-66.8 13.3-98.6.5zm112.3 11c-.9 3.5-1.2 7.3-2.7 10.4-4 8.4-7.7 16.9-13.1 24.5-.8 1.1-1.6 2.3-2.7 3.1-5.8 4.4-15.1-2.1-15.5-8.6-.1-2.8 1.4-5.4 3.4-7.3 3.5-3.3 8.4-4.4 12.3-6.9 3.6-2.3 6.7-5.1 11.7-9-9.7 3.6-17.1 5.9-24.1 9.2-6.3 2.9-9.5 10.4-8.4 17.1 2.2 12.9 17.9 16.7 27.9 10 6-4 10.7-11 12.6-18 1.1-3.9 1.4-8.1 1.1-12.1-.2-2.2-.5-4.3-.9-6.4-.2-1.3-1.9-4.7-1.6-6zm-116.4 6.9c.9 1.5 1.4 3.4 2.6 4.1 5.5 3.3 11.8 5.6 16.7 9.5 3.4 2.8 7.2 7.8 7 11.6-.2 3-5.8 6.9-9.7 8.2-7.1 2.4-13.5-1.2-16.3-7.6-3.4-7.9-4.9-16.5-7.2-24.6-.1.2-1.4 1.2-1.7 2.5-3.7 12.6 8.6 34.1 21.2 37.1 8.6 2.1 17.4-4.4 19.8-14.7 1.9-8-3.2-15.2-11.5-17.7-7-2-13.4-5.3-20.9-8.4zM256.8 339.8c-5.8 11.6-16.5 19.6-23.8 30.2-6.8 9.9-11.8 21-13 33-.9 9.3.3 18.7 1.6 27.9 1.2 8.6 2 17.3 3.2 26 4.3 30.8 14.9 59.2 31.6 85.4 10.6 16.7 20.7 33.7 26.7 52.9 5.1 16.5 4.3 33.2 4.1 50-.2 22.3 7.4 41.2 27.3 52.3 12.1 6.8 25.7 12.5 39.3 14.9 31.1 5.5 57.2 19.8 79.3 41.5 12.4 12.1 23.1 25.9 34.6 38.9 4 4.5 8.3 8.4 14.7 8.6 6.1.2 11.4-3.2 15.6-7.3 3.5-3.5 6.4-7.4 9.2-11.5 20.5-30.5 28.9-68.1 40.2-102.6 3.8-11.8 8.5-23.6 14.5-34.4 3.8-6.8 10.6-12 16.5-17.4 14.7-13.4 24.4-28.9 20.8-49.6-1.4-7.9-4.1-15.7-7.4-23-7.2-16.2-13.7-32.6-10.8-50.7 2.9-18.4 6.7-36.6 10.2-54.9 3.7-19.8 6.6-39.6-1.5-59-2.2-5.2-5.4-10-8.1-15-.9.3-3.6 6.2-3.7 9-.2 9.7-.1 19.5-.2 29.2-.1 18.8-2 37.4-11.1 54.2-11.6 21.3-15.4 43.7-12.5 67.6.5 4.1.3 8.4 0 12.6-1.4 22.4-9.2 41.1-30.1 52.4-25 13.5-45.2 32.2-61.2 55.7-6.2 9.1-14 17.5-22.2 24.9-8.2 7.4-19.7 5.9-26.2-2.8-4-5.3-6.9-11.7-9.1-18-4.9-14.2-10.7-27.7-22.7-37.6-12.8-10.6-25.2-21.7-37.9-32.5-33.3-28.1-49-61.7-35.2-105.7 2.4-7.8 2.2-16.6 2-24.9-.3-14.5-8.9-25.2-17.8-35.6-10.3-12.2-18.8-25.1-13.8-42.1 7.3-25-.1-57.8-9.8-78.4-2.3 13.5-8.1 25.3-13.3 35.8zm287.7-29c7.8-2 13.7-6.1 16.9-13.5 4.1-9.4-1.3-30-24.5-16.6-13.7 7.9-17.2 26.2-14.9 36.6 7-5.2 14.9-4.6 22.5-6.5zm-195.9 8.8c2.3-10.5-1.2-28.7-14.9-36.6-23.2-13.4-28.6 7.1-24.5 16.6 3.2 7.4 9.1 11.6 16.9 13.5 7.5 1.8 15.5 1.2 22.5 6.5z" style="fill:#2c3e50"/></svg>