<svg id="crops-farm" xmlns="http://www.w3.org/2000/svg" viewBox="0 0 64 64"><path d="M58,47h2a7,7,0,0,1-7,7H51A7,7,0,0,1,58,47Z" style="fill:#91cc04" id="id_101"></path><path d="M44,47a7,7,0,0,1,7,7H49a7,7,0,0,1-7-7Z" style="fill:#91cc04" id="id_102"></path><path d="M39,41h2a7,7,0,0,1-7,7H32A7,7,0,0,1,39,41Z" style="fill: rgb(50, 145, 45);" id="id_103"></path><circle cx="32" cy="16" r="6" style="fill: rgb(255, 233, 36);" id="id_104"></circle><path d="M35,40c0,2.76-3,5-3,5s-3-2.24-3-5,3-5,3-5S35,37.24,35,40Z" style="fill:#91cc04" id="id_105"></path><path d="M32,48H30a7,7,0,0,1-7-7h2A7,7,0,0,1,32,48Z" style="fill: rgb(58, 161, 53);" id="id_106"></path><path d="M32,56H30a4,4,0,0,1-4-4h2A4,4,0,0,1,32,56Z" style="fill: rgb(95, 179, 0);" id="id_107"></path><path d="M20,47h2a7,7,0,0,1-7,7H13A7,7,0,0,1,20,47Z" style="fill:#91cc04" id="id_108"></path><path d="M6,47a7,7,0,0,1,7,7H11a7,7,0,0,1-7-7Z" style="fill:#91cc04" id="id_109"></path><rect x="31" y="2" width="2" height="2" id="id_110" style="fill: rgb(240, 221, 48);"></rect><path d="M52,60V55h1a8.009,8.009,0,0,0,8-8,1,1,0,0,0-1-1H58a8,8,0,0,0-7,4.136A8,8,0,0,0,44,46H42a1,1,0,0,0-1,1,8.009,8.009,0,0,0,8,8h1v5H33V49h1a8.009,8.009,0,0,0,8-8,1,1,0,0,0-1-1H39a7.945,7.945,0,0,0-3.038.6A4.809,4.809,0,0,0,36,40c0-3.227-3.263-5.7-3.4-5.8a1,1,0,0,0-1.2,0c-.139.1-3.4,2.575-3.4,5.8a4.809,4.809,0,0,0,.038.6A7.945,7.945,0,0,0,25,40H23a1,1,0,0,0-1,1,8.009,8.009,0,0,0,8,8h1v3.026A4.948,4.948,0,0,0,28,51H26a1,1,0,0,0-1,1,5.006,5.006,0,0,0,5,5h1v3H14V55h1a8.009,8.009,0,0,0,8-8,1,1,0,0,0-1-1H20a8,8,0,0,0-7,4.136A8,8,0,0,0,6,46H4a1,1,0,0,0-1,1,8.009,8.009,0,0,0,8,8h1v5H2v2H62V60Zm6-12h.917A6.01,6.01,0,0,1,53,53h-.917A6.01,6.01,0,0,1,58,48Zm-9,5a6.01,6.01,0,0,1-5.917-5H44a6.01,6.01,0,0,1,5.917,5ZM30,55a3.006,3.006,0,0,1-2.829-2H28a3.006,3.006,0,0,1,2.829,2Zm9.917-13A6.01,6.01,0,0,1,34,47h-.917A6.01,6.01,0,0,1,39,42ZM32,36.324A5.732,5.732,0,0,1,34,40a5.693,5.693,0,0,1-2,3.676A5.732,5.732,0,0,1,30,40,5.693,5.693,0,0,1,32,36.324ZM30,47a6.01,6.01,0,0,1-5.917-5H25a6.01,6.01,0,0,1,5.917,5ZM20,48h.917A6.01,6.01,0,0,1,15,53h-.917A6.01,6.01,0,0,1,20,48Zm-9,5a6.01,6.01,0,0,1-5.917-5H6a6.01,6.01,0,0,1,5.917,5Z" id="id_111" style="fill: rgb(68, 107, 23);"></path><path d="M32,23a7,7,0,1,0-7-7A7.009,7.009,0,0,0,32,23Zm0-12a5,5,0,1,1-5,5A5.006,5.006,0,0,1,32,11Z" id="id_112" style="fill: rgb(255, 209, 41);"></path><rect x="31" y="5" width="2" height="2" id="id_113" style="fill: rgb(255, 210, 46);"></rect><rect x="23.929" y="7.929" width="2" height="2" transform="translate(0.988 20.242) rotate(-45)" id="id_114" style="fill: rgb(255, 208, 36);"></rect><rect x="21" y="15" width="2" height="2" id="id_115" style="fill: rgb(255, 209, 41);"></rect><rect x="23.929" y="22.071" width="2" height="2" transform="translate(-9.012 24.385) rotate(-45)" id="id_116" style="fill: rgb(255, 210, 46);"></rect><rect x="31" y="25" width="2" height="2" id="id_117" style="fill: rgb(255, 209, 43);"></rect><rect x="38.071" y="22.071" width="2" height="2" transform="translate(-4.87 34.385) rotate(-45)" id="id_118" style="fill: rgb(255, 210, 46);"></rect><rect x="41" y="15" width="2" height="2" id="id_119" style="fill: rgb(255, 206, 31);"></rect><rect x="38.071" y="7.929" width="2" height="2" transform="translate(5.13 30.243) rotate(-45)" id="id_120" style="fill: rgb(255, 206, 31);"></rect><rect x="21.808" y="5.808" width="2" height="2" transform="translate(1.866 18.121) rotate(-45)" id="id_121" style="fill: rgb(255, 209, 43);"></rect><rect x="18" y="15" width="2" height="2" id="id_122" style="fill: rgb(255, 210, 46);"></rect><rect x="21.808" y="24.192" width="2" height="2" transform="translate(-11.134 23.506) rotate(-45)" id="id_123" style="fill: rgb(255, 209, 41);"></rect><rect x="31" y="28" width="2" height="2" id="id_124" style="fill: rgb(255, 209, 43);"></rect><rect x="40.192" y="24.192" width="2" height="2" transform="translate(-5.749 36.506) rotate(-45)" id="id_125" style="fill: rgb(255, 208, 36);"></rect><rect x="44" y="15" width="2" height="2" id="id_126" style="fill: rgb(255, 208, 38);"></rect><rect x="40.192" y="5.808" width="2" height="2" transform="translate(7.251 31.121) rotate(-45)" id="id_127" style="fill: rgb(255, 232, 20);"></rect></svg>